<?xml version="1.0" encoding="UTF-8"?>
<svg version="1.1" viewBox="0 0 120 120" xmlns="http://www.w3.org/2000/svg">
<g>
<path d="m76.35 7.4727c-19.923-0.11318-34.429 12.756-39.633 25.225-2.6589 6.371-7.963 11.931-13.656 13.215-4.3985 0.99202-10.937-1.1655-14.043 2.0977-3.9342 4.1338 4.5354 16.782 11.098 20.229 11.949 6.2746 20.157 4.9227 33.904 2.334 12.984-2.4449 16.985-8.9639 19.188-13.936 2.6115-5.8947 3.8171-9.1542 5.291-8.6348 1.1957 0.42136 1.2373 3.9511-0.76562 8.7559-2.2852 5.4819-6.4673 9.6825-10.633 13.018-6.2595 5.0116-19.471 6.3083-22.352 6.7754-3.1777 0.5153-5.9186 1.9914-6.873 3.75-1.9242 3.5455-2.8336 5.3744-4.2344 9.0332-1.2318 3.2176 1.7046 3.3417 3.2031 3.334l43.244-0.22266c4.6408-0.023832 5.167-3.932 6.2715-7.4199 1.1948-3.7731 5.1989-10.294 7.3398-13.141 1.9213-2.5543 15.502-17.111 15.631-31.004 0.16602-17.87-11.422-33.286-32.98-33.408zm-34.85 34.527a3.5 3.5 0 0 1 3.5 3.5 3.5 3.5 0 0 1-3.5 3.5 3.5 3.5 0 0 1-3.5-3.5 3.5 3.5 0 0 1 3.5-3.5z" fill="#d67969"/>
<path d="m31 96a4 4 0 0 0-4 4v11a4 4 0 0 0 4 4h53a4 4 0 0 0 4-4v-11a4 4 0 0 0-4-4h-53z" fill="#a679a6"/>
</g>
</svg>