<?xml version="1.0" encoding="UTF-8" standalone="no"?>
<!-- Created with Inkscape (http://www.inkscape.org/) -->

<svg
   width="120"
   height="120"
   viewBox="0 0 120 120"
   version="1.1"
   id="svg5"
   sodipodi:docname="non-animation.svg"
   inkscape:version="1.1.1 (3bf5ae0d25, 2021-09-20)"
   xmlns:inkscape="http://www.inkscape.org/namespaces/inkscape"
   xmlns:sodipodi="http://sodipodi.sourceforge.net/DTD/sodipodi-0.dtd"
   xmlns="http://www.w3.org/2000/svg"
   xmlns:svg="http://www.w3.org/2000/svg">
  <sodipodi:namedview
     id="namedview7"
     pagecolor="#ffffff"
     bordercolor="#666666"
     borderopacity="1.0"
     inkscape:pageshadow="2"
     inkscape:pageopacity="0.0"
     inkscape:pagecheckerboard="0"
     inkscape:document-units="px"
     showgrid="true"
     inkscape:snap-bbox="true"
     inkscape:bbox-nodes="true"
     inkscape:snap-bbox-edge-midpoints="false"
     inkscape:snap-bbox-midpoints="false"
     inkscape:bbox-paths="false"
     inkscape:zoom="2"
     inkscape:cx="-82.5"
     inkscape:cy="46"
     inkscape:window-width="1366"
     inkscape:window-height="705"
     inkscape:window-x="-8"
     inkscape:window-y="-8"
     inkscape:window-maximized="1"
     inkscape:current-layer="layer1"
     showguides="false"
     inkscape:snap-smooth-nodes="true"
     inkscape:guide-bbox="true">
    <inkscape:grid
       type="xygrid"
       id="grid824" />
    <sodipodi:guide
       position="0,65"
       orientation="0,-1"
       id="guide18020" />
    <sodipodi:guide
       position="65,0"
       orientation="1,0"
       id="guide18022" />
  </sodipodi:namedview>
  <defs
     id="defs2" />
  <g
     inkscape:label="Capa 1"
     inkscape:groupmode="layer"
     id="layer1">
    <path
       id="path1041"
       style="fill:#000000;fill-opacity:1;stroke-width:5;paint-order:markers stroke fill"
       d="m 20,10 c -5.522847,0 -10,4.47715 -10,10 v 80 c 0,5.52285 4.477153,10 10,10 h 80 c 5.52285,0 10,-4.47715 10,-10 V 20 c 0,-5.52285 -4.47715,-10 -10,-10 z m 5,10 h 70 c 2.761424,0 5,2.23857 5,5 v 70 c 0,2.76143 -2.238576,5 -5,5 H 25 c -2.761424,0 -5,-2.238575 -5,-5 V 25 c 0,-2.761425 2.238576,-5 5,-5 z"
       sodipodi:nodetypes="ssssssssssssssssss" />
    <path
       id="path1041-3"
       style="fill:#000000;fill-opacity:1;stroke-width:5;paint-order:markers stroke fill"
       d="M 60 25 C 51.715729 25 45 31.715729 45 40 L 45 45 L 40 45 C 34.477153 45 30 49.47715 30 55 L 30 85 C 30 90.52285 34.477153 95 40 95 L 80 95 C 85.52285 95 90 90.52285 90 85 L 90 55 C 90 49.47715 85.52285 45 80 45 L 75 45 L 75 40 C 75 31.715729 68.284271 25 60 25 z M 60 35 C 62.761424 35 65 37.238575 65 40 L 65 45 L 55 45 L 55 40 C 55 37.238575 57.238576 35 60 35 z M 45 55 L 75 55 C 77.76142 55 80 57.23857 80 60 L 80 80 C 80 82.76143 77.76142 85 75 85 L 45 85 C 42.238576 85 40 82.76143 40 80 L 40 60 C 40 57.238575 42.238576 55 45 55 z " />
    <path
       id="path5991"
       style="fill:#000000;fill-opacity:1;stroke-width:5;paint-order:markers stroke fill"
       d="M 60 62 A 5 5 0 0 0 55 67 A 5 5 0 0 0 57 70.984375 L 57 75 C 57 76.656854 58.343146 78 60 78 C 61.656854 78 63 76.656854 63 75 L 63 70.984375 A 5 5 0 0 0 65 67 A 5 5 0 0 0 60 62 z " />
  </g>
</svg>
