<?xml version="1.0" encoding="UTF-8" standalone="no"?>
<!-- Created with Inkscape (http://www.inkscape.org/) -->

<svg
   width="120"
   height="120"
   viewBox="0 0 120 120"
   version="1.1"
   id="svg5"
   sodipodi:docname="sun.svg"
   inkscape:version="1.1.1 (3bf5ae0d25, 2021-09-20)"
   xmlns:inkscape="http://www.inkscape.org/namespaces/inkscape"
   xmlns:sodipodi="http://sodipodi.sourceforge.net/DTD/sodipodi-0.dtd"
   xmlns="http://www.w3.org/2000/svg"
   xmlns:svg="http://www.w3.org/2000/svg">
  <sodipodi:namedview
     id="namedview7"
     pagecolor="#ffffff"
     bordercolor="#666666"
     borderopacity="1.0"
     inkscape:pageshadow="2"
     inkscape:pageopacity="0.0"
     inkscape:pagecheckerboard="0"
     inkscape:document-units="px"
     showgrid="true"
     inkscape:snap-bbox="true"
     inkscape:bbox-nodes="true"
     inkscape:snap-bbox-edge-midpoints="false"
     inkscape:snap-bbox-midpoints="false"
     inkscape:bbox-paths="false"
     inkscape:zoom="2"
     inkscape:cx="6.25"
     inkscape:cy="72.5"
     inkscape:window-width="1366"
     inkscape:window-height="705"
     inkscape:window-x="-8"
     inkscape:window-y="-8"
     inkscape:window-maximized="1"
     inkscape:current-layer="layer1"
     showguides="false"
     inkscape:snap-smooth-nodes="true">
    <inkscape:grid
       type="xygrid"
       id="grid824" />
  </sodipodi:namedview>
  <defs
     id="defs2" />
  <g
     inkscape:label="Capa 1"
     inkscape:groupmode="layer"
     id="layer1">
    <path
       id="path10818"
       style="opacity:1;vector-effect:none;fill:#000000;fill-opacity:1;stroke:none;stroke-width:1px;stroke-linecap:butt;stroke-linejoin:miter;stroke-miterlimit:4;stroke-dasharray:none;stroke-dashoffset:0;stroke-opacity:1"
       d="m 60,5 c -2.761424,0 -5,2.238576 -5,5 v 10 c 0,2.761424 2.238576,5 5,5 2.761424,0 5,-2.238576 5,-5 V 10 C 65,7.238576 62.761424,5 60,5 Z"
       sodipodi:nodetypes="sssssss" />
    <path
       id="path10818-1"
       style="vector-effect:none;fill:#000000;fill-opacity:1;stroke:none;stroke-width:1px;stroke-linecap:butt;stroke-linejoin:miter;stroke-miterlimit:4;stroke-dasharray:none;stroke-dashoffset:0;stroke-opacity:1"
       d="m 60,95 c -2.761424,0 -5,2.23858 -5,5 v 10 c 0,2.76142 2.238576,5 5,5 2.761424,0 5,-2.23858 5,-5 v -10 c 0,-2.76142 -2.238576,-5 -5,-5 z"
       sodipodi:nodetypes="sssssss" />
    <path
       id="path10818-1-4"
       style="vector-effect:none;fill:#000000;fill-opacity:1;stroke:none;stroke-width:1px;stroke-linecap:butt;stroke-linejoin:miter;stroke-miterlimit:4;stroke-dasharray:none;stroke-dashoffset:0;stroke-opacity:1"
       d="m 95,60 c 0,2.761424 2.23858,5 5,5 h 10 c 2.76142,0 5,-2.238576 5,-5 0,-2.76142 -2.23858,-5 -5,-5 h -10 c -2.76142,0 -5,2.23858 -5,5 z"
       sodipodi:nodetypes="sssssss" />
    <path
       id="path10818-1-4-0"
       style="vector-effect:none;fill:#000000;fill-opacity:1;stroke:none;stroke-width:1px;stroke-linecap:butt;stroke-linejoin:miter;stroke-miterlimit:4;stroke-dasharray:none;stroke-dashoffset:0;stroke-opacity:1"
       d="m 5,60 c 0,2.761424 2.23858,5 5,5 h 10 c 2.76142,0 5,-2.238576 5,-5 0,-2.76142 -2.23858,-5 -5,-5 H 10 c -2.76142,0 -5,2.23858 -5,5 z"
       sodipodi:nodetypes="sssssss" />
    <circle
       style="fill:#000000;fill-opacity:1;stroke-width:4.1404;paint-order:markers stroke fill"
       id="path11643"
       cx="60"
       cy="60"
       r="30" />
    <path
       id="path15337"
       style="opacity:1;vector-effect:none;fill:#000000;fill-opacity:1;stroke:none;stroke-width:1px;stroke-linecap:butt;stroke-linejoin:miter;stroke-miterlimit:4;stroke-dasharray:none;stroke-dashoffset:0;stroke-opacity:1"
       d="m 35.251263,84.748737 c -1.562098,-1.562097 -4.094757,-1.562097 -5.656855,0 l -7.071067,7.071068 c -1.562098,1.562098 -1.562098,4.094757 0,5.656854 1.562097,1.562098 4.094756,1.562098 5.656854,0 l 7.071068,-7.071067 c 1.562097,-1.562098 1.562097,-4.094757 0,-5.656855 z" />
    <path
       id="path15337-0"
       style="vector-effect:none;fill:#000000;fill-opacity:1;stroke:none;stroke-width:1px;stroke-linecap:butt;stroke-linejoin:miter;stroke-miterlimit:4;stroke-dasharray:none;stroke-dashoffset:0;stroke-opacity:1"
       d="m 97.476659,22.523341 c -1.562097,-1.562098 -4.094757,-1.562098 -5.656854,0 l -7.071068,7.071067 c -1.562098,1.562098 -1.562097,4.094757 0,5.656855 1.562098,1.562097 4.094757,1.562098 5.656855,0 l 7.071067,-7.071068 c 1.562098,-1.562097 1.562098,-4.094757 0,-5.656854 z" />
    <path
       id="path15337-0-2"
       style="vector-effect:none;fill:#000000;fill-opacity:1;stroke:none;stroke-width:1px;stroke-linecap:butt;stroke-linejoin:miter;stroke-miterlimit:4;stroke-dasharray:none;stroke-dashoffset:0;stroke-opacity:1"
       d="m 35.251263,35.251263 c -1.562098,1.562097 -4.094757,1.562097 -5.656855,0 l -7.071067,-7.071068 c -1.562098,-1.562098 -1.562098,-4.094757 0,-5.656854 1.562097,-1.562098 4.094756,-1.562098 5.656854,0 l 7.071068,7.071067 c 1.562097,1.562098 1.562097,4.094757 0,5.656855 z" />
    <path
       id="path15337-0-2-5"
       style="vector-effect:none;fill:#000000;fill-opacity:1;stroke:none;stroke-width:1px;stroke-linecap:butt;stroke-linejoin:miter;stroke-miterlimit:4;stroke-dasharray:none;stroke-dashoffset:0;stroke-opacity:1"
       d="m 97.476659,97.476659 c -1.562097,1.562098 -4.094756,1.562098 -5.656854,0 l -7.071068,-7.071067 c -1.562098,-1.562098 -1.562097,-4.094757 0,-5.656855 1.562098,-1.562097 4.094757,-1.562098 5.656855,0 l 7.071067,7.071068 c 1.562098,1.562098 1.562098,4.094757 0,5.656854 z" />
  </g>
</svg>
